<svg style="position: absolute; width: 0; height: 0;" width="0" height="0" version="1.1" xmlns="http://www.w3.org/2000/svg" xmlns:xlink="http://www.w3.org/1999/xlink">
<defs>
<symbol id="icon-arrow_down" viewBox="0 0 1024 1024">
<title>arrow_down</title>
<path class="path1" d="M1016.123 307.2l-472.615 472.615c-7.877 7.877-15.754 7.877-31.508 7.877-7.877 0-23.631 0-31.508-15.754l-472.615-472.615c-15.754-15.754-15.754-39.385 0-55.138s39.385-15.754 55.138 0l441.108 441.108 441.108-441.108c15.754-15.754 39.385-15.754 55.138 0 31.508 23.631 31.508 47.262 15.754 63.015z"></path>
</symbol>
<symbol id="icon-arrow_left" viewBox="0 0 1024 1024">
<title>arrow_left</title>
<path class="path1" d="M244.185 480.492l472.615-472.615c15.754-15.754 39.385-15.754 55.138 0 15.754 23.631 15.754 47.262 0 63.015l-441.108 441.108 441.108 441.108c15.754 15.754 15.754 39.385 0 55.138s-39.385 15.754-55.138 0l-472.615-472.615c-7.877 0-7.877-15.754-7.877-23.631s0-23.631 7.877-31.508z"></path>
</symbol>
<symbol id="icon-arrow_right" viewBox="0 0 1024 1024">
<title>arrow_right</title>
<path class="path1" d="M771.938 543.508l-472.615 472.615c-15.754 15.754-39.385 15.754-55.138 0s-15.754-39.385 0-55.138l441.108-441.108-433.231-448.985c-15.754-15.754-15.754-39.385 0-55.138s39.385-15.754 55.138 0l472.615 472.615c7.877 0 7.877 15.754 7.877 23.631s0 23.631-15.754 31.508z"></path>
</symbol>
<symbol id="icon-ca" viewBox="0 0 1024 1024">
<title>ca</title>
<path class="path1" d="M389.12 512c0-20.48 0-36.864 4.096-57.344s8.192-36.864 12.288-57.344c16.384-61.44 57.344-106.496 106.496-135.168 40.96-24.576 86.016-36.864 126.976-36.864 45.056 0 90.112 12.288 126.976 36.864 49.152 28.672 86.016 73.728 106.496 135.168 12.288 36.864 16.384 77.824 16.384 114.688 0 4.096 0 4.096 0 8.192 0 24.576 4.096 49.152 12.288 77.824s24.576 49.152 45.056 65.536c24.576 16.384 49.152 24.576 77.824 24.576l-57.344 102.4c-32.768-8.192-61.44-20.48-90.112-40.96-16.384-12.288-32.768-28.672-45.056-45.056-4.096 4.096-8.192 8.192-8.192 12.288-24.576 28.672-53.248 45.056-86.016 61.44-36.864 16.384-73.728 20.48-110.592 20.48s-73.728-12.288-110.592-28.672l53.248-98.304c16.384 8.192 36.864 16.384 57.344 16.384s40.96-4.096 61.44-12.288c16.384-8.192 32.768-16.384 45.056-32.768 12.288-12.288 20.48-28.672 24.576-49.152 8.192-24.576 12.288-53.248 12.288-77.824 0-4.096 0-4.096 0-8.192v0c0-28.672-4.096-57.344-12.288-81.92-8.192-32.768-28.672-57.344-53.248-73.728-20.48-12.288-45.056-20.48-69.632-20.48s-49.152 8.192-69.632 20.48c-24.576 16.384-45.056 40.96-53.248 73.728-4.096 12.288-8.192 28.672-8.192 40.96-4.096 16.384-4.096 28.672-4.096 40.96v0 0c0 20.48 0 40.96-4.096 57.344-4.096 20.48-8.192 36.864-12.288 57.344-16.384 61.44-57.344 110.592-106.496 139.264-40.96 24.576-81.92 32.768-126.976 32.768s-90.112-8.192-126.976-28.672c-49.152-28.672-86.016-73.728-106.496-139.264-12.288-36.864-16.384-77.824-16.384-114.688s4.096-77.824 16.384-114.688c16.384-53.248 45.056-94.208 86.016-122.88 40.96-32.768 94.208-49.152 147.456-49.152 20.48 0 40.96 4.096 61.44 8.192s40.96 12.288 57.344 24.576l-53.248 94.208c-8.192-4.096-20.48-8.192-32.768-12.288-8.192-4.096-20.48-4.096-32.768-4.096-28.672 0-57.344 8.192-77.824 24.576s-36.864 36.864-45.056 65.536c-8.192 28.672-12.288 57.344-12.288 86.016s4.096 57.344 12.288 86.016c8.192 32.768 28.672 57.344 53.248 73.728 20.48 12.288 45.056 20.48 69.632 20.48s49.152-8.192 69.632-20.48c24.576-16.384 45.056-36.864 53.248-73.728 4.096-16.384 8.192-28.672 8.192-40.96 4.096-16.384 8.192-32.768 8.192-45.056v0 0z"></path>
</symbol>
<symbol id="icon-compl" viewBox="0 0 1024 1024">
<title>compl</title>
<path class="path1" d="M630.154 283.569l346.585-165.415 39.385 70.892-346.585 165.415-39.385-70.892zM1024 905.846h-86.646c-86.646-141.785-244.185-236.308-425.354-236.308s-330.831 94.523-425.354 236.308h-86.646c94.523-189.046 291.446-315.077 512-315.077s417.477 126.031 512 315.077zM7.877 189.046l39.385-70.892 346.585 157.538-39.385 70.892-346.585-157.538z"></path>
</symbol>
<symbol id="icon-cross" viewBox="0 0 1024 1024">
<title>cross</title>
<path class="path1" d="M1024 968.862l-55.138 55.138-456.862-456.862-456.862 456.862-55.138-55.138 456.862-456.862-456.862-456.862 55.138-55.138 456.862 456.862 456.862-456.862 55.138 55.138-456.862 456.862 456.862 456.862z"></path>
</symbol>
<symbol id="icon-fav" viewBox="0 0 1024 1024">
<title>fav</title>
<path class="path1" d="M512 34.133l170.667 300.373 341.333 61.44-238.933 252.587 40.96 341.333-314.027-143.36-314.027 143.36 40.96-341.333-238.933-252.587 341.333-61.44 170.667-300.373z"></path>
</symbol>
<symbol id="icon-like" viewBox="0 0 1024 1024">
<title>like</title>
<path class="path1" d="M512 945.231c0 0-811.323-543.508-393.846-819.2 236.308-157.538 393.846 118.154 393.846 118.154s157.538-275.692 393.846-118.154c409.6 275.692-393.846 819.2-393.846 819.2z"></path>
</symbol>
<symbol id="icon-login" viewBox="0 0 1024 1024">
<title>login</title>
<path class="path1" d="M921.6 1024c-70.063-156.295-231.747-269.474-414.989-269.474s-344.926 113.179-414.989 269.474h-64.674c75.453-188.632 258.695-323.368 474.274-323.368s398.821 134.737 474.274 323.368h-53.895zM501.221 592.842c-161.684 0-296.421-134.737-296.421-296.421s134.737-296.421 296.421-296.421 296.421 134.737 296.421 296.421c0 161.684-129.347 296.421-296.421 296.421zM501.221 53.895c-134.737 0-242.526 107.789-242.526 242.526s107.789 242.526 242.526 242.526 242.526-107.789 242.526-242.526c0-134.737-107.789-242.526-242.526-242.526z"></path>
</symbol>
<symbol id="icon-logo" viewBox="0 0 1024 1024">
<title>logo</title>
<path class="path1" d="M736.305 202.362l-24.381-4.876-199.924-197.486-99.962 104.838 190.171 102.4 134.095-4.876zM297.448 280.381l63.39-119.467-17.067 17.067-270.629 78.019 41.448 141.41 182.857-117.029zM889.905 553.448l-7.314-24.381 68.267-273.067-141.41-34.133 7.314 219.429 73.143 112.152zM134.095 468.114l7.314 24.381-68.267 275.505 141.41 34.133-7.314-219.429-73.143-114.59zM287.695 821.638l24.381 4.876 199.924 197.486 99.962-104.838-190.171-102.4-134.095 4.876zM726.552 743.619l-63.39 119.467 17.067-17.067 270.629-78.019-41.448-141.41-182.857 117.029zM675.352 724.114l7.314-14.629 168.229-99.962-51.2-87.771-104.838 112.152-19.505 90.21zM775.314 472.99l-9.752-14.629-2.438-197.486-102.4 2.438 43.886 146.286 70.705 63.39zM611.962 263.314h-17.067l-170.667-97.524-48.762 90.21 146.286 36.571 90.21-29.257zM316.952 614.4l-68.267-65.829 9.752 14.629 2.438 197.486 102.4-2.438-46.324-143.848zM348.648 299.886l-9.752 17.067-168.229 99.962 51.2 87.771 104.838-112.152 21.943-92.648zM412.038 760.686h17.067l170.667 97.524 48.762-90.21-146.286-36.571-90.21 29.257z"></path>
</symbol>
<symbol id="icon-meta_cat" viewBox="0 0 1024 1024">
<title>meta_cat</title>
<path class="path1" d="M903.529 993.882h-783.059c-66.259 0-120.471-54.212-120.471-120.471v-722.824c0-66.259 54.212-120.471 120.471-120.471h481.882c66.259 0 120.471 54.212 120.471 120.471v60.235h180.706c66.259 0 120.471 54.212 120.471 120.471v542.118c0 66.259-54.212 120.471-120.471 120.471zM963.765 331.294c0-36.141-24.094-60.235-60.235-60.235h-240.941v-120.471c0-36.141-24.094-60.235-60.235-60.235h-481.882c-36.141 0-60.235 24.094-60.235 60.235v259.012c18.071-12.047 36.141-18.071 60.235-18.071h783.059c24.094 0 42.165 6.024 60.235 18.071v-78.306zM963.765 512c0-36.141-24.094-60.235-60.235-60.235h-783.059c-36.141 0-60.235 24.094-60.235 60.235v361.412c0 36.141 24.094 60.235 60.235 60.235h783.059c36.141 0 60.235-24.094 60.235-60.235v-361.412z"></path>
</symbol>
<symbol id="icon-meta_coms" viewBox="0 0 1024 1024">
<title>meta_coms</title>
<path class="path1" d="M903.529 692.706h-198.776l-301.176 301.176-42.165-42.165 301.176-301.176v-18.071h240.941c36.141 0 60.235-24.094 60.235-60.235v-421.647c0-36.141-24.094-60.235-60.235-60.235h-783.059c-36.141 0-60.235 24.094-60.235 60.235v421.647c0 36.141 24.094 60.235 60.235 60.235h240.941v60.235h-240.941c-66.259 0-120.471-54.212-120.471-120.471v-421.647c0-66.259 54.212-120.471 120.471-120.471h783.059c66.259 0 120.471 54.212 120.471 120.471v421.647c0 66.259-54.212 120.471-120.471 120.471z"></path>
</symbol>
<symbol id="icon-meta_date" viewBox="0 0 1024 1024">
<title>meta_date</title>
<path class="path1" d="M512 1024c-283.106 0-512-228.894-512-512s228.894-512 512-512c283.106 0 512 228.894 512 512s-228.894 512-512 512zM512 60.235c-246.965 0-451.765 204.8-451.765 451.765s204.8 451.765 451.765 451.765 451.765-204.8 451.765-451.765c0-246.965-204.8-451.765-451.765-451.765zM481.882 240.941h60.235v301.176h-60.235v-301.176z"></path>
</symbol>
<symbol id="icon-meta_mail" viewBox="0 0 1024 1024">
<title>meta_mail</title>
<path class="path1" d="M1024 317.979v0l-10.779 5.389-495.832 264.084v5.389h-10.779v-5.389l-495.832-264.084h-10.779v-215.579h1024v210.189zM970.105 161.684h-916.211v123.958l458.105 242.526 458.105-242.526v-123.958zM53.895 862.316h916.211v-431.158h53.895v485.053h-1024v-485.053h53.895v431.158z"></path>
</symbol>
<symbol id="icon-meta_pages" viewBox="0 0 1024 1024">
<title>meta_pages</title>
<path class="path1" d="M512 1024c-282.483 0-512-229.517-512-512s229.517-512 512-512 512 229.517 512 512-229.517 512-512 512zM512 35.31c-247.172 0-448.441 187.145-473.159 427.255 17.655 10.593 31.779 28.248 31.779 49.434s-14.124 38.841-31.779 49.434c24.717 240.11 225.986 427.255 473.159 427.255s448.441-187.145 473.159-427.255c-17.655-7.062-31.779-24.717-31.779-49.434 0-21.186 14.124-38.841 31.779-49.434-24.717-240.11-225.986-427.255-473.159-427.255zM794.483 564.966c-28.248 0-52.966-24.717-52.966-52.966s24.717-52.966 52.966-52.966c28.248 0 52.966 24.717 52.966 52.966s-24.717 52.966-52.966 52.966zM512 635.586c-67.090 0-123.586-56.497-123.586-123.586s56.497-123.586 123.586-123.586c67.090 0 123.586 56.497 123.586 123.586s-56.497 123.586-123.586 123.586zM512 423.724c-49.434 0-88.276 38.841-88.276 88.276s38.841 88.276 88.276 88.276c49.434 0 88.276-38.841 88.276-88.276s-38.841-88.276-88.276-88.276zM229.517 564.966c-28.248 0-52.966-24.717-52.966-52.966s24.717-52.966 52.966-52.966c28.248 0 52.966 24.717 52.966 52.966s-24.717 52.966-52.966 52.966z"></path>
</symbol>
<symbol id="icon-meta_reply" viewBox="0 0 1024 1024">
<title>meta_reply</title>
<path class="path1" d="M519.877 1024l-47.262-47.262 417.477-425.354h-417.477c-259.938 0-472.615-212.677-472.615-472.615v-78.769h78.769v78.769c0 220.554 173.292 393.846 393.846 393.846h417.477l-417.477-425.354 47.262-47.262 504.123 512-504.123 512z"></path>
</symbol>
<symbol id="icon-meta_user" viewBox="0 0 992 1024">
<title>meta_user</title>
<path class="path1" d="M921.6 1024c-83.2-153.6-243.2-256-422.4-256-185.6 0-345.6 102.4-422.4 256h-76.8c83.2-185.6 275.2-320 492.8-320s409.6 134.4 492.8 320h-64zM492.8 576c-153.6 0-288-128-288-288s134.4-288 288-288c160 0 288 128 288 288s-128 288-288 288zM492.8 64c-121.6 0-224 102.4-224 224s102.4 224 224 224c121.6 0 224-102.4 224-224s-96-224-224-224z"></path>
</symbol>
<symbol id="icon-meta_views" viewBox="0 0 1024 1024">
<title>meta_views</title>
<path class="path1" d="M512 903.529c-283.106 0-512-174.682-512-391.529s228.894-391.529 512-391.529c283.106 0 512 174.682 512 391.529s-228.894 391.529-512 391.529zM512 180.706c-246.965 0-451.765 150.588-451.765 331.294s204.8 331.294 451.765 331.294 451.765-150.588 451.765-331.294c0-180.706-204.8-331.294-451.765-331.294zM512 722.824c-114.447 0-210.824-96.376-210.824-210.824s96.376-210.824 210.824-210.824c114.447 0 210.824 96.376 210.824 210.824s-96.376 210.824-210.824 210.824zM512 361.412c-84.329 0-150.588 66.259-150.588 150.588s66.259 150.588 150.588 150.588c84.329 0 150.588-66.259 150.588-150.588s-66.259-150.588-150.588-150.588z"></path>
</symbol>
<symbol id="icon-next" viewBox="0 0 1024 1024">
<title>next</title>
<path class="path1" d="M707.896 503.096l-463.026-471.93 31.165-31.165 494.191 503.096-494.191 498.643-31.165-31.165 463.026-467.478z"></path>
</symbol>
<symbol id="icon-prev" viewBox="0 0 1024 1024">
<title>prev</title>
<path class="path1" d="M307.2 503.096l463.026 471.93-31.165 31.165-494.191-503.096 494.191-503.096 31.165 31.165-463.026 471.93z"></path>
</symbol>
<symbol id="icon-search" viewBox="0 0 1024 1024">
<title>search</title>
<path class="path1" d="M1024 986.274l-37.726 37.726-220.968-220.968c-80.842 70.063-188.632 113.179-301.811 113.179-258.695 0-463.495-204.8-463.495-458.105s204.8-458.105 458.105-458.105c253.305 0 458.105 204.8 458.105 458.105 0 118.568-43.116 220.968-113.179 301.811l220.968 226.358zM862.316 458.105c0-220.968-183.242-404.211-404.211-404.211s-404.211 183.242-404.211 404.211c0 220.968 183.242 404.211 404.211 404.211s404.211-183.242 404.211-404.211z"></path>
</symbol>
<symbol id="icon-sort" viewBox="0 0 1024 1024">
<title>sort</title>
<path class="path1" d="M512 1024c-282.483 0-512-229.517-512-512s229.517-512 512-512 512 229.517 512 512-229.517 512-512 512zM512 35.31c-264.828 0-476.69 211.862-476.69 476.69s211.862 476.69 476.69 476.69c264.828 0 476.69-211.862 476.69-476.69s-211.862-476.69-476.69-476.69zM670.897 342.51v399.007h-35.31v-399.007l-155.366 151.834-21.186-21.186 194.207-190.676 194.207 190.676-21.186 21.186-155.366-151.834zM564.966 550.841l-194.207 190.676-194.207-190.676 21.186-21.186 155.366 151.834v-363.697h35.31v363.697l155.366-151.834 21.186 21.186z"></path>
</symbol>
<symbol id="icon-speedbar" viewBox="0 0 1024 1024">
<title>speedbar</title>
<path class="path1" d="M512 1024c-282.483 0-512-229.517-512-512s229.517-512 512-512 512 229.517 512 512c0 282.483-229.517 512-512 512zM512 35.31c-264.828 0-476.69 211.862-476.69 476.69s211.862 476.69 476.69 476.69c264.828 0 476.69-211.862 476.69-476.69s-211.862-476.69-476.69-476.69zM529.655 685.021l151.834-155.366h-399.007v-35.31h399.007l-151.834-155.366 21.186-21.186 190.676 194.207-190.676 194.207-21.186-21.186z"></path>
</symbol>
<symbol id="icon-tags" viewBox="0 0 1024 1024">
<title>tags</title>
<path class="path1" d="M864 416v608h-704v-704h6.4c19.2-179.2 166.4-320 345.6-320 83.2 0 160 32 217.6 83.2l70.4-70.4c12.8-12.8 38.4-12.8 51.2 0s12.8 38.4 0 51.2l-70.4 64c44.8 51.2 70.4 121.6 76.8 192h6.4v32c0 0 0 0 0 0v64c0 0 0 0 0 0zM800 352c0-70.4-25.6-128-64-179.2l-89.6 96c12.8 25.6 25.6 51.2 25.6 83.2 0 89.6-70.4 160-160 160s-160-70.4-160-160 70.4-160 160-160c32 0 57.6 12.8 83.2 25.6l89.6-89.6c-44.8-38.4-108.8-64-172.8-64-160 0-288 128-288 288v262.4c0 0 0 0 0 0v345.6h288c0 0 0 0 0 0s0 0 0 0h288v-288c0 0 0 0 0 0v-320zM537.6 371.2c-12.8 12.8-38.4 12.8-51.2 0s-12.8-38.4 0-51.2l57.6-57.6c-6.4 0-19.2-6.4-32-6.4-51.2 0-96 44.8-96 96s44.8 96 96 96 96-38.4 96-96c0-12.8-6.4-25.6-6.4-38.4l-64 57.6z"></path>
</symbol>
<symbol id="icon-fb" viewBox="0 0 683 1024">
<title>fb</title>
<path class="path1" d="M443.733 1024v-469.333h204.8l34.133-179.2h-238.933v-119.467c0-51.2 17.067-85.333 119.467-85.333h119.467v-162.133c-25.6 0-93.867-8.533-179.2-8.533-179.2 0-298.667 85.333-298.667 238.933v136.533h-204.8v179.2h204.8v469.333h238.933z"></path>
</symbol>
<symbol id="icon-gp" viewBox="0 0 1536 1024">
<title>gp</title>
<path class="path1" d="M1399.467 588.8c0 51.2 0 93.867 0 145.067-42.667 0-93.867 0-136.533 0 0-51.2 0-93.867 0-145.067-42.667 0-93.867 0-136.533 0 0-51.2 0-93.867 0-145.067 42.667 0 93.867 0 136.533 0 0-51.2 0-93.867 0-145.067 42.667 0 93.867 0 136.533 0 0 51.2 0 93.867 0 145.067 42.667 0 93.867 0 136.533 0 0 51.2 0 93.867 0 145.067-42.667 0-93.867 0-136.533 0zM307.2 989.867c-187.733-76.8-324.267-290.133-307.2-503.467 0-264.533 238.933-494.933 486.4-486.4 119.467-8.533 230.4 51.2 324.267 128-34.133 42.667-76.8 93.867-119.467 136.533-110.933-85.333-273.067-110.933-384-17.067-162.133 110.933-162.133 384-17.067 512 145.067 145.067 426.667 68.267 469.333-145.067-93.867 0-187.733 0-281.6 0 0-59.733 0-119.467 0-170.667 153.6 0 307.2 0 469.333 0 8.533 136.533-8.533 281.6-85.333 392.533-119.467 179.2-358.4 230.4-554.667 153.6z"></path>
</symbol>
<symbol id="icon-mail" viewBox="0 0 1007 1024">
<title>mail</title>
<path class="path1" d="M485.966 216.949c78.102 0 147.525 34.712 199.593 95.458v0c8.678-34.712 26.034-52.068 43.39-52.068h8.678c34.712 0 43.39 34.712 43.39 43.39v425.22c0 26.034 26.034 43.39 43.39 26.034 60.746-69.424 138.847-355.797-43.39-520.678-164.881-164.881-390.508-138.847-512-52.068-121.492 95.458-208.271 303.729-130.169 494.644 86.78 208.271 329.763 277.695 477.288 208.271 78.102-34.712 112.814 78.102 34.712 112.814-112.814 52.068-442.576 43.39-590.102-234.305-104.136-190.915-95.458-520.678 173.559-685.559 208.271-130.169 485.966-95.458 650.847 86.78 173.559 190.915 164.881 546.712-8.678 685.559-78.102 60.746-190.915 0-190.915-86.78v-26.034c-52.068 52.068-121.492 86.78-199.593 86.78-147.525 0-286.373-147.525-286.373-303.729 0-164.881 138.847-303.729 286.373-303.729v0 0 0zM676.881 503.322c-8.678-121.492-86.78-190.915-190.915-190.915v0c-112.814 8.678-182.237 104.136-182.237 208.271 0 121.492 78.102 199.593 182.237 199.593 112.814 0 190.915-86.78 190.915-190.915v-26.034z"></path>
</symbol>
<symbol id="icon-od" viewBox="0 0 623 1024">
<title>od</title>
<path class="path1" d="M315.733 520.533c145.067 0 264.533-119.467 264.533-256 0-145.067-119.467-256-264.533-256-145.067-8.533-264.533 110.933-264.533 247.467 0 145.067 119.467 264.533 264.533 264.533zM315.733 128c68.267 0 128 59.733 128 128s-59.733 128-128 128c-76.8 0-136.533-51.2-136.533-128s59.733-128 136.533-128zM614.4 546.133c-17.067-25.6-59.733-51.2-110.933-8.533-76.8 59.733-187.733 59.733-187.733 59.733s-119.467 0-196.267-59.733c-51.2-42.667-93.867-17.067-110.933 8.533-25.6 51.2 0 76.8 68.267 119.467 59.733 34.133 136.533 51.2 179.2 51.2l-34.133 42.667c-59.733 59.733-119.467 110.933-153.6 153.6-25.6 25.6-25.6 59.733 0 85.333l8.533 8.533c25.6 25.6 59.733 25.6 85.333 0l153.6-153.6c59.733 59.733 119.467 110.933 153.6 153.6 25.6 25.6 59.733 25.6 85.333 0l8.533-8.533c25.6-25.6 25.6-59.733 0-85.333l-162.133-153.6-34.133-34.133c51.2-8.533 128-17.067 179.2-51.2 68.267-51.2 93.867-76.8 68.267-128z"></path>
</symbol>
<symbol id="icon-tw" viewBox="0 0 1195 1024">
<title>tw</title>
<path class="path1" d="M1194.667 119.467v0 0zM827.733 0c-136.533 0-247.467 119.467-247.467 256 0 17.067 0 42.667 8.533 59.733-204.8-8.533-384-110.933-503.467-264.533-25.6 34.133-34.133 76.8-34.133 128 0 93.867 42.667 170.667 110.933 213.333-42.667 0-76.8-17.067-110.933-34.133 0 0 0 0 0 0 0 128 85.333 230.4 196.267 256-25.6 8.533-42.667 8.533-68.267 8.533-17.067 0-34.133 0-42.667-8.533 25.6 110.933 119.467 187.733 230.4 187.733-85.333 68.267-187.733 110.933-307.2 110.933-17.067 0-42.667 0-59.733 0 110.933 68.267 238.933 110.933 375.467 110.933 452.267 0 699.733-392.533 699.733-733.867 0-8.533 0-25.6 0-34.133 51.2-34.133 85.333-85.333 119.467-136.533-42.667 17.067-93.867 34.133-136.533 42.667 51.2-34.133 85.333-85.333 110.933-145.067-51.2 25.6-102.4 51.2-153.6 59.733-51.2-42.667-119.467-76.8-187.733-76.8z"></path>
</symbol>
<symbol id="icon-vk" viewBox="0 0 868 1024">
<title>vk</title>
<path class="path1" d="M807.051 555.39c-43.39-43.39-95.458-69.424-164.881-86.78v0c43.39-17.356 86.78-52.068 112.814-86.78 26.034-43.39 43.39-86.78 43.39-138.847 0-43.39-8.678-86.78-26.034-112.814-17.356-34.712-52.068-60.746-86.78-78.102-43.39-26.034-78.102-34.712-121.492-43.39s-104.136-8.678-182.237-8.678h-381.831v1041.356h433.898c78.102 0 138.847-8.678 182.237-17.356 52.068-17.356 95.458-34.712 130.169-69.424 34.712-26.034 60.746-60.746 78.102-95.458 17.356-43.39 34.712-86.78 34.712-138.847 8.678-69.424-8.678-121.492-52.068-164.881zM503.322 355.797c-8.678 17.356-17.356 26.034-43.39 43.39-17.356 8.678-34.712 8.678-60.746 8.678-17.356 0-52.068 0-95.458 0h-34.712v-216.949h17.356c52.068 0 86.78 0 112.814 0s43.39 8.678 60.746 8.678c17.356 8.678 34.712 17.356 43.39 34.712 8.678 26.034 17.356 43.39 17.356 60.746 0 26.034-8.678 43.39-17.356 60.746zM572.746 781.017c-17.356 26.034-34.712 34.712-60.746 52.068-26.034 8.678-52.068 17.356-78.102 17.356s-78.102 0-147.525 0h-17.356v-260.339h52.068c52.068 0 86.78 0 112.814 0s52.068 0 69.424 8.678c26.034 8.678 52.068 26.034 60.746 43.39 17.356 17.356 17.356 43.39 17.356 78.102 8.678 26.034 0 43.39-8.678 60.746z"></path>
</symbol>
<symbol id="icon-ya" viewBox="0 0 486 1024">
<title>ya</title>
<path class="path1" d="M473.6 0h-153.6c-153.6 0-281.6 115.2-281.6 339.2 0 134.4 64 236.8 172.8 281.6l-211.2 384c-6.4 12.8 0 19.2 12.8 19.2h96c6.4 0 12.8 0 19.2-6.4l192-371.2h64v371.2c0 0 6.4 6.4 12.8 6.4h83.2c6.4 0 12.8-6.4 12.8-12.8v-998.4c-6.4-6.4-6.4-12.8-19.2-12.8zM384 556.8h-57.6c-89.6 0-179.2-64-179.2-230.4 0-172.8 83.2-243.2 166.4-243.2h70.4v473.6z"></path>
</symbol>
</defs>
</svg>
